PathFileType	4	(X/Y/Z)	/Users/niels/Desktop/University/Third Semester/Perception and Action/Exam/Gymnastics Motion Tracking/Code for Gym Tracking/Scripts/Analyzed Data/kraft_bad_id5_1_nmspeed_Sports2D/kraft_bad_id5_1_nmspeed_Sports2D_px_person00.trc
DataRate	CameraRate	NumFrames	NumMarkers	Units	OrigDataRate	OrigDataStartFrame	OrigNumFrames
49.390243902439025	49.390243902439025	11	22	m	49.390243902439025	27	82
Frame#	Time	Hip			RHip			RKnee			RAnkle			RBigToe			RSmallToe			RHeel			LHip			LKnee			LAnkle			LBigToe			LSmallToe			LHeel			Neck			Head			Nose			RShoulder			RElbow			RWrist			LShoulder			LElbow			LWrist		
		X1	Y1	Z1	X2	Y2	Z2	X3	Y3	Z3	X4	Y4	Z4	X5	Y5	Z5	X6	Y6	Z6	X7	Y7	Z7	X8	Y8	Z8	X9	Y9	Z9	X10	Y10	Z10	X11	Y11	Z11	X12	Y12	Z12	X13	Y13	Z13	X14	Y14	Z14	X15	Y15	Z15	X16	Y16	Z16	X17	Y17	Z17	X18	Y18	Z18	X19	Y19	Z19	X20	Y20	Z20	X21	Y21	Z21	X22	Y22	Z22
27	0.5466666666666666	0.5347742679624071	-0.5150391669609962	0.0	0.5159533800367655	-0.5124239989616272	0.0	0.4816214799341264	-0.6640436960919462	0.0	0.39917273208100007	-0.8019008773574016	0.0	0.4331438594598226	-0.8408841098469846	0.0	0.41448320168775304	-0.8403552727497623	0.0	0.3826442235761546	-0.8196827004770826	0.0	0.5539659356123996	-0.5323572559511355	0.0	0.5903794462052789	-0.6662576351869465	0.0	0.5597665354231741	-0.8011803305959971	0.0	0.5856554275545629	-0.8384468703607716	0.0	0.5907356754461959	-0.8356931265705596	0.0	0.5445093574478429	-0.8208691807845939	0.0	0.721737295331853	-0.47472256709744126	0.0	0.8043751784510352	-0.4755428109189085	0.0	0.7759280295774785	-0.4863200207499568	0.0	0.7252236584063912	-0.461533193357641	0.0	0.8099627620748381	-0.49354045620206716	0.0	0.8790525838551662	-0.49772940321341236	0.0	0.7176073553192027	-0.4816122724531566	0.0	0.7914075715802306	-0.4991879944265042	0.0	0.8699116243995824	-0.49097736217694654	0.0
28	0.5669135802469135	0.5597559516916905	-0.5081616634677607	0.0	0.5438550339883398	-0.5052225359873007	0.0	0.4941681459453592	-0.645117436843857	0.0	0.40377198370949563	-0.7681499802125216	0.0	0.4284310550665542	-0.8091935787118826	0.0	0.4115117402118756	-0.8063296704441951	0.0	0.38723556651005636	-0.7846135920367965	0.0	0.5741629162062294	-0.5267287091978359	0.0	0.5934984800434233	-0.6669853445611332	0.0	0.5511885225280887	-0.7981039893094577	0.0	0.5703832586943607	-0.8402351814243257	0.0	0.5761253605619275	-0.838056972569731	0.0	0.5353448084776244	-0.8171512689798851	0.0	0.7502034233334592	-0.49159295700397515	0.0	0.8314750277584452	-0.4988129397251322	0.0	0.8007385183435959	-0.5075419749662261	0.0	0.7552105057256282	-0.4785387980405033	0.0	0.8370442750816169	-0.5212952962612319	0.0	0.8976849697557828	-0.5373972189089985	0.0	0.7433467721176286	-0.4963251902926989	0.0	0.8120762081218209	-0.5173350636800927	0.0	0.8861545025986715	-0.5181569744860147	0.0
29	0.5871604938271604	0.5852646205738834	-0.500680329616049	0.0	0.5721095971686793	-0.4970873745236034	0.0	0.5061374959451601	-0.6210797215640574	0.0	0.407294654821025	-0.7241550112511959	0.0	0.4208137025805918	-0.7672560514373997	0.0	0.4058543750471411	-0.7614806876637882	0.0	0.3908070515081714	-0.7384582517401149	0.0	0.5947058473970539	-0.5202353674129737	0.0	0.5982164917701404	-0.6672963627248067	0.0	0.5460457120092682	-0.7958571747090285	0.0	0.5588795047336798	-0.8425743316334836	0.0	0.5650847192673816	-0.8410767860265516	0.0	0.5298742791045109	-0.8144926972455998	0.0	0.777159666108144	-0.5079832965538932	0.0	0.8572419799768808	-0.5208078455917554	0.0	0.8244948861597791	-0.5279313262795365	0.0	0.7832972599284923	-0.49541500890497414	0.0	0.8619917827024679	-0.5491325899365431	0.0	0.9129603110272689	-0.5770448977090877	0.0	0.7681278981389557	-0.5109066350867632	0.0	0.832203689781814	-0.5350647383289672	0.0	0.9003032220092799	-0.5453368289588125	0.0
30	0.6074074074074074	0.6112789977575421	-0.4932881089921631	0.0	0.6003991169944021	-0.4885848703035903	0.0	0.5167046642134561	-0.5920902550489956	0.0	0.40958932657552616	-0.6699653613206824	0.0	0.410651197106957	-0.7148780693942208	0.0	0.397787442921834	-0.7056983340373996	0.0	0.39331640143507546	-0.6810498189777976	0.0	0.6159970930706588	-0.5136644575995303	0.0	0.6064433930734051	-0.6675243874565342	0.0	0.5469936983640219	-0.7954478962696655	0.0	0.5541761755164698	-0.8459248434310376	0.0	0.560715307042312	-0.8451929535444181	0.0	0.5308014828307601	-0.8139553438607904	0.0	0.8027771978516903	-0.5235659598400596	0.0	0.8818422842825605	-0.5407960451664262	0.0	0.8474923739461125	-0.546817417979809	0.0	0.809445346925513	-0.5120073809113563	0.0	0.8850396480939529	-0.576509888524138	0.0	0.9262326091861299	-0.6155235431338849	0.0	0.7922288939229516	-0.5253635420321436	0.0	0.8524290338917976	-0.5528343037196839	0.0	0.9137340110917307	-0.5729620253447761	0.0
31	0.6276543209876543	0.637672950869232	-0.48662509333226095	0.0	0.6285414183986139	-0.48034543058233525	0.0	0.5265304792497406	-0.5588760507792143	0.0	0.4127403390177993	-0.6072724453270031	0.0	0.40081640406355046	-0.6529880562154501	0.0	0.39023179124687263	-0.6402949068085462	0.0	0.3969917399730724	-0.6141807671815228	0.0	0.6381583860445479	-0.5076662374619403	0.0	0.6184776250088371	-0.6675945781111144	0.0	0.554244074541172	-0.7967046400863352	0.0	0.5568092958624906	-0.8498544094204723	0.0	0.5635109353178521	-0.8498928886139364	0.0	0.5382963222681346	-0.8152623499008654	0.0	0.8272764146318152	-0.5380016723054732	0.0	0.905434067401736	-0.5582331213800024	0.0	0.8699242803925966	-0.5638171079088691	0.0	0.8338262725642572	-0.5280440671051098	0.0	0.9062883753354453	-0.602677849615879	0.0	0.9392080085991626	-0.6515924434638364	0.0	0.8157810310663615	-0.5394698924940666	0.0	0.8726113842906223	-0.571142125521886	0.0	0.9273505119097156	-0.6014278072980037	0.0
32	0.6479012345679012	0.6641736416820885	-0.4811952920363485	0.0	0.6564448804538204	-0.4730023031006436	0.0	0.5377742807445595	-0.522823413843492	0.0	0.42085585460782704	-0.5394780896929849	0.0	0.3963666418370942	-0.5838558665632118	0.0	0.3884015776692571	-0.5681540331190597	0.0	0.40604739205156587	-0.5416736529069083	0.0	0.6609583101108406	-0.502638731058995	0.0	0.6329607102138844	-0.6670174491920384	0.0	0.5655352456654051	-0.798231368626005	0.0	0.5647072486892377	-0.8530664929693554	0.0	0.5712620607132418	-0.8537357005922372	0.0	0.5499578018308799	-0.8167744070215804	0.0	0.8507389415838882	-0.5509992724082201	0.0	0.9280428074802353	-0.5729694851695413	0.0	0.8917545848534404	-0.5789098931633573	0.0	0.8566514329209995	-0.5431169629128224	0.0	0.9255351567199817	-0.6266102935857786	0.0	0.9534576052942119	-0.6839242398294032	0.0	0.8385892643344318	-0.5527362475959638	0.0	0.8919111817813928	-0.5902717209651128	0.0	0.9411343829735005	-0.6307093310615152	0.0
33	0.668148148148148	0.690514658178412	-0.4772460562672807	0.0	0.6840922572491255	-0.46704312677901166	0.0	0.5528101016667346	-0.48561821097548025	0.0	0.4380348433869881	-0.4706576944746814	0.0	0.40232400959944375	-0.5106406679077518	0.0	0.397436757894175	-0.4929911542473174	0.0	0.42458106924460565	-0.4681065293427951	0.0	0.6840839237060039	-0.4987008682987992	0.0	0.6481382500902078	-0.6651708794778204	0.0	0.5779473722333647	-0.7982090736122037	0.0	0.574911468855163	-0.8539917154373878	0.0	0.5808795199915353	-0.855037064348696	0.0	0.562673673300485	-0.8164598368559955	0.0	0.8730904969124309	-0.5625246967053147	0.0	0.9496162993502314	-0.5853524590020408	0.0	0.9127770351920638	-0.592433686470481	0.0	0.8780360489890249	-0.5569053396440021	0.0	0.9423985777419593	-0.6474750392821015	0.0	0.969402251349104	-0.7116682879411842	0.0	0.8602652791891596	-0.5648227664292742	0.0	0.909307556407872	-0.6101497921546813	0.0	0.9542182046306327	-0.6602177171541079	0.0
34	0.6883950617283949	0.7165878242562473	-0.4747002206206524	0.0	0.7115781246173386	-0.4626984347620267	0.0	0.5732828125990279	-0.44884717619142	0.0	0.4668402595043461	-0.40447044884561895	0.0	0.4220242004228347	-0.43668454755025177	0.0	0.4206510249888576	-0.41846769554241264	0.0	0.45508575367879095	-0.39754391689846963	0.0	0.7073863635466863	-0.4956757818743888	0.0	0.66281866715759	-0.6615199576738997	0.0	0.5892921083555442	-0.7950020099503439	0.0	0.5848866498997274	-0.8512009893709849	0.0	0.5897675566078576	-0.8523583134867239	0.0	0.5740788455472363	-0.8126045346439589	0.0	0.8941788158053489	-0.5729295580358161	0.0	0.970088214449738	-0.5961687127761219	0.0	0.9327130806373876	-0.6049730435895618	0.0	0.8979946578285373	-0.5694193442612372	0.0	0.9565560563630099	-0.6651315087935413	0.0	0.985717810814949	-0.7349551834086006	0.0	0.8804685028054929	-0.5758952359271817	0.0	0.9240014267702467	-0.630307587495436	0.0	0.9653983201792204	-0.6889655371238824	0.0
35	0.7086419753086419	0.7423846209600298	-0.4732358298247101	0.0	0.7390105547080993	-0.4599319067314613	0.0	0.5999043628962951	-0.4139093298508681	0.0	0.5079631356212921	-0.3438457682368872	0.0	0.4567332186604072	-0.3652244198755703	0.0	0.459161619893164	-0.3479089753845692	0.0	0.4981887938356938	-0.3332117399138793	0.0	0.7308727865649648	-0.4931687135698067	0.0	0.6764944700617027	-0.6556806012533949	0.0	0.5983499569056134	-0.7872418151377135	0.0	0.5927972902551005	-0.8434237004426044	0.0	0.5961527882823745	-0.844505745560172	0.0	0.5828515894006963	-0.8038458262642431	0.0	0.913821108473485	-0.5827453535621198	0.0	0.9893372611154387	-0.6063279187722109	0.0	0.9512739110176486	-0.6170566329080904	0.0	0.9164794961175482	-0.5809100903082552	0.0	0.9679389138180603	-0.6799775801265484	0.0	1.0003783369418064	-0.7545435184090276	0.0	0.8990136443031482	-0.5864060600633337	0.0	0.935643469231765	-0.6499980335608909	0.0	0.9738370224965923	-0.7159725074208314	0.0
36	0.7288888888888888	0.7678568568783933	-0.47245785777393134	0.0	0.7663338168085891	-0.45853054928759	0.0	0.6324635108504372	-0.3820731753502785	0.0	0.5603337895311015	-0.2911360428377925	0.0	0.5057000483204073	-0.29943078689000235	0.0	0.5120008497780205	-0.2843569889802615	0.0	0.5527747353379238	-0.27765938908420584	0.0	0.7545867957727308	-0.49076831187022235	0.0	0.6891461892814423	-0.6474496776483791	0.0	0.6047167416640781	-0.7737923750171228	0.0	0.5975293082676494	-0.8295096842020602	0.0	0.5991233765164626	-0.8304237813015657	0.0	0.588596786703011	-0.7890314310347104	0.0	0.9318115542821073	-0.5923812801347185	0.0	1.0071515933032946	-0.6165206506464321	0.0	0.9682010246660299	-0.6289188180380674	0.0	0.933391049242365	-0.5916432756316865	0.0	0.9767640608846018	-0.692528052582621	0.0	1.0119984778099436	-0.7711829546151598	0.0	0.9158352313499295	-0.5966700752835132	0.0	0.9443777026729973	-0.6684078651390881	0.0	0.9794450695040615	-0.74051598701977	0.0
37	0.7491358024691357	0.7929066976175384	-0.4720644162234899	0.0	0.7933123448243977	-0.4582559051437361	0.0	0.6699898890735231	-0.35441033955651874	0.0	0.6215144789651018	-0.24811720904372483	0.0	0.5665032505417822	-0.24219480578165195	0.0	0.5765269898525766	-0.23036583360528926	0.0	0.6163374914351105	-0.23273509651785848	0.0	0.778562849938243	-0.4882510054405177	0.0	0.7010275025605412	-0.6368023045811051	0.0	0.608677412614147	-0.7537805486833905	0.0	0.5987869531533893	-0.8084712126163169	0.0	0.5986323761468454	-0.8091791634874123	0.0	0.5917172004328652	-0.7672087500175333	0.0	0.9479597368264087	-0.6020137599076811	0.0	1.0233158812856396	-0.6271514837746616	0.0	0.9833157799336166	-0.6405400879262833	0.0	0.9486213233228727	-0.6018240783337416	0.0	0.9834141785456813	-0.703241312977755	0.0	1.0200986009309716	-0.7853823239407772	0.0	0.9309421057216092	-0.6067210966468909	0.0	0.9507033734168164	-0.6848442457142909	0.0	0.9827502806087187	-0.7620935366727833	0.0
